<?xml version="1.0" standalone="no"?>
<!DOCTYPE svg PUBLIC "-//W3C//DTD SVG 20010904//EN"
 "http://www.w3.org/TR/2001/REC-SVG-20010904/DTD/svg10.dtd">
<svg version="1.0" xmlns="http://www.w3.org/2000/svg"
 width="1600.000000pt" height="1600.000000pt" viewBox="0 0 1600.000000 1600.000000"
 preserveAspectRatio="xMidYMid meet">
<metadata>
Created by potrace 1.14, written by Peter Selinger 2001-2017
</metadata>
<g transform="translate(0.000000,1600.000000) scale(0.100000,-0.100000)"
fill="#000000" stroke="none">
<path d="M7735 15994 c-16 -2 -113 -8 -215 -14 -995 -59 -1974 -306 -2880
-726 -153 -71 -453 -224 -543 -278 -43 -25 -79 -46 -81 -46 -2 0 -73 -42 -157
-93 -339 -206 -583 -378 -889 -626 -255 -207 -362 -304 -630 -571 -244 -242
-367 -382 -665 -752 -97 -120 -371 -515 -474 -683 -253 -412 -468 -840 -631
-1255 -116 -295 -193 -523 -289 -860 -79 -279 -176 -778 -215 -1105 -40 -331
-66 -728 -66 -987 0 -221 33 -728 64 -980 50 -399 128 -794 232 -1173 68 -245
231 -719 304 -885 16 -36 61 -139 101 -230 64 -146 233 -489 272 -552 8 -13
31 -54 52 -93 52 -99 222 -378 296 -487 21 -32 39 -60 39 -63 0 -3 6 -13 14
-22 8 -10 50 -67 93 -128 43 -60 90 -126 103 -145 60 -83 307 -392 376 -469
22 -25 83 -93 135 -151 164 -185 443 -459 654 -644 143 -126 148 -129 195
-166 25 -19 47 -37 50 -40 3 -3 34 -28 70 -55 36 -27 67 -52 70 -55 20 -25
306 -228 500 -356 69 -46 130 -87 137 -93 7 -6 15 -11 19 -11 3 0 61 -33 128
-73 158 -96 273 -160 426 -239 69 -36 134 -70 145 -76 27 -14 283 -132 289
-132 2 0 37 -15 78 -34 334 -154 897 -339 1342 -442 623 -144 1155 -204 1822
-204 438 0 664 14 1061 65 1191 155 2374 601 3373 1272 198 133 460 321 490
353 3 3 59 48 125 101 66 54 129 105 141 115 12 11 49 44 84 74 270 237 695
672 876 899 10 13 33 40 49 60 17 20 46 56 65 81 19 25 37 47 40 50 3 3 39 50
80 105 41 55 78 105 82 110 24 30 132 186 208 300 135 203 211 329 390 648 48
86 31 79 -25 -11 -27 -42 -61 -93 -76 -112 -14 -19 -73 -98 -130 -175 -123
-167 -102 -140 -235 -300 -182 -220 -339 -391 -549 -595 -147 -142 -301 -283
-360 -328 -16 -13 -46 -38 -65 -55 -19 -18 -55 -48 -80 -67 -25 -19 -47 -37
-50 -40 -3 -3 -54 -43 -113 -89 l-108 -83 -34 17 c-19 8 -52 22 -74 29 -21 8
-63 25 -92 39 -30 14 -101 46 -159 72 -263 119 -743 383 -758 418 -2 4 -8 7
-13 7 -5 0 -27 12 -48 27 -21 16 -49 35 -61 43 -12 8 -35 25 -52 37 l-30 22
-82 -67 c-44 -37 -83 -69 -86 -72 -3 -3 -27 -22 -55 -41 -27 -18 -52 -37 -55
-40 -8 -8 -197 -131 -265 -171 -89 -53 -216 -118 -335 -172 -58 -26 -113 -51
-122 -56 -39 -21 -263 -106 -388 -146 -440 -144 -864 -224 -1205 -228 -73 0
-133 -2 -132 -3 1 0 52 -17 112 -37 576 -187 1118 -192 1725 -14 117 34 314
101 375 128 11 5 79 34 150 65 72 31 181 82 243 112 l112 56 78 -44 c84 -48
187 -100 297 -150 87 -39 405 -159 422 -159 26 0 11 -19 -37 -49 -28 -17 -53
-31 -55 -31 -3 0 -22 -10 -43 -23 -102 -64 -177 -105 -399 -216 -133 -67 -244
-121 -247 -121 -4 0 -44 -18 -91 -40 -47 -22 -89 -40 -95 -40 -6 0 -32 -11
-58 -24 -113 -56 -497 -191 -776 -273 -108 -31 -124 -33 -165 -23 -73 18 -278
80 -371 112 -47 16 -105 35 -130 42 -47 14 -334 119 -385 141 -96 42 -174 75
-179 75 -13 0 -401 188 -535 259 -144 76 -464 276 -550 342 -13 11 -28 19 -33
19 -5 0 -30 -19 -56 -43 -108 -99 -416 -317 -447 -317 -7 0 -15 -3 -17 -8 -8
-19 -200 -119 -463 -242 -182 -85 -638 -232 -885 -285 l-75 -16 -200 70 c-184
64 -351 127 -400 151 -11 5 -77 34 -146 64 -350 151 -810 404 -1127 620 -74
50 -141 96 -150 101 -9 6 -22 16 -30 22 -7 7 -17 13 -21 13 -4 0 -16 8 -27 18
-11 10 -32 27 -47 36 -36 24 -26 36 31 36 63 0 286 26 392 45 333 61 782 209
1115 365 33 15 96 45 140 65 44 20 107 50 140 67 l61 30 74 -41 c41 -23 118
-63 170 -90 84 -42 142 -69 391 -176 109 -48 480 -165 639 -203 258 -61 486
-99 780 -127 223 -22 680 -30 915 -16 254 15 638 52 649 62 6 5 -1 9 -16 9
-53 0 -422 75 -698 142 -386 94 -718 193 -1080 325 -120 43 -353 133 -395 153
-11 5 -94 41 -185 81 -180 78 -585 282 -693 348 -37 22 -72 41 -77 41 -6 0
-10 5 -10 10 0 6 -4 10 -9 10 -12 0 -115 63 -119 73 -2 4 -8 7 -14 7 -8 0
-215 135 -228 150 -3 3 -23 17 -46 31 -34 23 -43 25 -58 14 -18 -13 -106 -88
-135 -115 -53 -48 -306 -227 -406 -285 -27 -17 -57 -34 -66 -40 -46 -28 -315
-169 -399 -208 -319 -151 -756 -302 -1136 -391 -137 -32 -149 -32 -188 0 -179
149 -600 568 -756 754 -30 36 -59 70 -65 76 -5 6 -23 28 -40 49 -16 21 -56 70
-88 109 -32 39 -61 76 -65 81 -4 6 -50 69 -103 140 -101 137 -125 171 -226
325 -34 52 -66 100 -72 106 -5 6 -24 38 -42 70 -18 33 -37 60 -41 62 -4 2 -8
7 -8 12 0 4 -26 52 -58 107 -48 80 -103 181 -223 413 -56 108 -167 354 -225
500 -19 47 -39 94 -44 105 -15 31 -78 207 -127 355 -207 625 -319 1226 -364
1940 -29 454 14 1216 91 1625 43 228 63 329 76 385 8 36 22 94 30 130 24 107
118 448 134 485 4 11 24 70 44 130 40 124 89 260 110 308 7 18 26 64 41 102
15 39 33 84 40 100 7 17 41 93 75 169 127 288 347 695 508 940 26 40 52 79 57
89 36 60 302 435 325 457 3 3 21 25 40 50 19 25 39 50 45 56 5 6 26 30 45 54
43 54 142 173 150 180 3 3 48 52 100 110 52 58 155 166 230 241 120 121 173
171 340 324 72 65 226 195 314 263 44 35 90 71 101 80 91 77 608 432 628 432
4 0 203 117 265 155 147 92 625 317 907 428 355 140 861 291 1180 351 44 8
114 23 155 31 148 32 521 81 795 105 201 18 721 24 945 11 429 -24 832 -77
1185 -156 64 -15 125 -29 134 -32 9 -4 14 -3 11 0 -8 9 -336 110 -505 155
-552 149 -998 221 -1620 262 -247 17 -634 24 -740 14z m1035 -14573 c223 -114
360 -170 620 -256 129 -42 432 -120 494 -127 16 -2 31 -8 33 -14 4 -11 -159
-32 -432 -56 -221 -20 -1015 -16 -1240 5 -181 18 -363 40 -465 57 -30 5 -102
17 -160 25 -175 27 -178 32 -45 64 160 37 380 114 650 226 63 26 191 86 269
127 39 20 78 37 86 37 8 1 94 -39 190 -88z"/>
<path d="M10630 15550 c8 -5 20 -10 25 -10 6 0 3 5 -5 10 -8 5 -19 10 -25 10
-5 0 -3 -5 5 -10z"/>
<path d="M10710 15522 c8 -5 26 -13 40 -16 17 -5 20 -4 10 2 -8 5 -26 13 -40
16 -17 5 -20 4 -10 -2z"/>
<path d="M10790 15490 c8 -5 20 -10 25 -10 6 0 3 5 -5 10 -8 5 -19 10 -25 10
-5 0 -3 -5 5 -10z"/>
<path d="M10859 15465 c18 -8 36 -15 40 -15 13 1 -45 29 -59 29 -8 0 0 -6 19
-14z"/>
<path d="M10950 15430 c8 -5 20 -10 25 -10 6 0 3 5 -5 10 -8 5 -19 10 -25 10
-5 0 -3 -5 5 -10z"/>
<path d="M11000 15410 c8 -5 20 -10 25 -10 6 0 3 5 -5 10 -8 5 -19 10 -25 10
-5 0 -3 -5 5 -10z"/>
<path d="M11070 15380 c8 -5 20 -10 25 -10 6 0 3 5 -5 10 -8 5 -19 10 -25 10
-5 0 -3 -5 5 -10z"/>
<path d="M11120 15360 c8 -5 20 -10 25 -10 6 0 3 5 -5 10 -8 5 -19 10 -25 10
-5 0 -3 -5 5 -10z"/>
<path d="M11200 15325 c25 -13 50 -24 55 -24 6 0 -10 11 -35 24 -25 13 -49 24
-55 24 -5 0 10 -11 35 -24z"/>
<path d="M11300 15280 c8 -5 22 -9 30 -9 10 0 8 3 -5 9 -27 12 -43 12 -25 0z"/>
<path d="M11350 15265 c0 -7 141 -77 146 -73 2 2 -30 21 -71 41 -41 20 -75 35
-75 32z"/>
<path d="M11510 15185 c0 -7 61 -37 66 -33 2 3 -12 12 -31 21 -19 9 -35 15
-35 12z"/>
<path d="M11630 15120 c8 -5 20 -10 25 -10 6 0 3 5 -5 10 -8 5 -19 10 -25 10
-5 0 -3 -5 5 -10z"/>
<path d="M11670 15105 c0 -2 23 -16 50 -30 28 -14 50 -23 50 -20 0 2 -22 16
-50 30 -27 14 -50 23 -50 20z"/>
<path d="M11806 15031 c47 -29 94 -52 94 -47 0 6 -105 66 -116 66 -5 0 5 -9
22 -19z"/>
<path d="M11969 14939 c18 -11 35 -18 38 -15 5 5 -50 36 -64 36 -4 0 7 -9 26
-21z"/>
<path d="M12021 14906 c10 -9 69 -36 69 -32 0 6 -55 36 -66 36 -4 0 -5 -2 -3
-4z"/>
<path d="M12100 14866 c0 -3 9 -10 20 -16 11 -6 20 -8 20 -6 0 3 -9 10 -20 16
-11 6 -20 8 -20 6z"/>
<path d="M12155 14830 c3 -5 26 -20 50 -34 25 -14 43 -21 40 -16 -3 5 -26 20
-50 34 -25 14 -43 21 -40 16z"/>
<path d="M12260 14766 c0 -3 9 -10 20 -16 11 -6 20 -8 20 -6 0 3 -9 10 -20 16
-11 6 -20 8 -20 6z"/>
<path d="M12345 14713 c17 -17 227 -155 221 -145 -3 5 -50 38 -103 74 -109 72
-133 86 -118 71z"/>
<path d="M12580 14557 c0 -3 21 -20 48 -39 57 -41 72 -50 72 -45 0 2 -27 23
-60 46 -33 23 -60 40 -60 38z"/>
<path d="M12714 14462 c7 -12 135 -111 180 -141 l21 -13 -21 18 c-45 40 -187
147 -180 136z"/>
<path d="M12937 14289 c12 -12 25 -20 28 -17 3 3 -7 13 -22 23 l-28 17 22 -23z"/>
<path d="M12992 14244 c10 -10 20 -16 22 -13 3 3 -5 11 -17 18 -21 13 -21 12
-5 -5z"/>
<path d="M13033 14212 c4 -6 22 -21 39 -34 17 -12 28 -17 25 -10 -4 6 -22 21
-39 34 -17 12 -28 17 -25 10z"/>
<path d="M13116 14147 c3 -10 9 -15 12 -12 3 3 0 11 -7 18 -10 9 -11 8 -5 -6z"/>
<path d="M13155 14110 c10 -11 20 -20 23 -20 3 0 -3 9 -13 20 -10 11 -20 20
-23 20 -3 0 3 -9 13 -20z"/>
<path d="M13240 14041 c100 -98 133 -126 121 -103 -6 12 -15 22 -19 22 -4 0
-27 19 -52 42 -67 62 -103 90 -50 39z"/>
<path d="M13395 13900 c10 -11 20 -20 23 -20 3 0 -3 9 -13 20 -10 11 -20 20
-23 20 -3 0 3 -9 13 -20z"/>
<path d="M13430 13871 c0 -6 4 -13 10 -16 6 -3 7 1 4 9 -7 18 -14 21 -14 7z"/>
<path d="M13472 13828 c8 -7 25 -22 38 -33 20 -16 19 -13 -4 13 -17 17 -34 32
-39 32 -4 0 -2 -6 5 -12z"/>
<path d="M13570 13735 c19 -19 36 -35 39 -35 3 0 -10 16 -29 35 -19 19 -36 35
-39 35 -3 0 10 -16 29 -35z"/>
<path d="M13650 13655 c19 -19 36 -35 39 -35 3 0 -10 16 -29 35 -19 19 -36 35
-39 35 -3 0 10 -16 29 -35z"/>
<path d="M13730 13575 c19 -19 36 -35 39 -35 3 0 -10 16 -29 35 -19 19 -36 35
-39 35 -3 0 10 -16 29 -35z"/>
<path d="M13810 13495 c18 -22 51 -58 74 -80 55 -54 14 -5 -53 65 -33 33 -41
39 -21 15z"/>
<path d="M13930 13358 c23 -19 222 -247 254 -291 16 -21 31 -36 33 -33 5 5 -3
15 -156 190 -62 72 -121 135 -130 139 -14 7 -14 7 -1 -5z"/>
<path d="M14284 12943 c26 -34 52 -65 58 -69 15 -10 -39 62 -76 101 -16 17 -8
2 18 -32z"/>
<path d="M14365 12840 c10 -11 20 -20 23 -20 3 0 -3 9 -13 20 -10 11 -20 20
-23 20 -3 0 3 -9 13 -20z"/>
<path d="M14420 12765 c17 -25 33 -45 36 -45 3 0 -9 20 -26 45 -17 25 -33 45
-36 45 -3 0 9 -20 26 -45z"/>
<path d="M14470 12706 c0 -15 44 -76 54 -76 5 0 0 10 -11 23 -11 12 -25 31
-31 42 -6 11 -12 16 -12 11z"/>
<path d="M9320 12640 c-414 -42 -775 -102 -995 -165 -108 -32 -132 -44 -224
-114 l-73 -56 80 -16 c140 -28 247 -75 317 -140 16 -16 33 -29 37 -29 17 0
100 -144 122 -213 130 -398 -117 -1123 -708 -2082 -101 -164 -291 -451 -417
-630 -39 -55 -78 -112 -87 -126 -9 -14 -34 -47 -55 -75 -21 -27 -77 -101 -124
-164 -394 -529 -875 -1009 -1290 -1287 -295 -198 -597 -339 -893 -416 -159
-42 -377 -80 -381 -67 -8 21 43 107 163 276 87 124 160 248 242 411 257 515
298 833 148 1153 -51 109 -184 297 -297 418 -22 24 -41 47 -43 51 -8 22 304
45 473 36 253 -13 446 -51 860 -170 211 -60 350 -96 425 -109 34 -7 33 -5 -45
70 -334 320 -975 671 -1504 824 -179 52 -371 96 -534 122 -161 26 -560 31
-717 10 -224 -31 -758 -137 -776 -154 -4 -4 179 -118 190 -118 21 0 261 -102
380 -162 316 -157 545 -316 747 -517 133 -133 216 -245 284 -386 192 -394 136
-808 -164 -1210 -279 -372 -690 -634 -1136 -723 -183 -37 -295 -45 -554 -39
-227 5 -315 13 -581 53 l-45 7 40 -42 c58 -61 173 -146 289 -213 533 -308
1370 -403 2046 -233 194 48 375 119 655 255 306 148 433 220 743 425 545 360
1028 790 1632 1450 230 252 753 887 1165 1414 390 500 746 864 1075 1099 250
178 588 347 880 440 310 99 497 127 820 126 206 -1 254 -4 391 -28 350 -60
641 -158 1024 -347 226 -112 412 -231 730 -469 497 -372 1020 -872 1197 -1144
34 -54 38 -65 38 -126 0 -324 -411 -782 -865 -965 -220 -89 -376 -119 -625
-119 -252 -1 -402 24 -659 110 -248 83 -428 191 -596 359 -151 150 -266 375
-310 603 -54 278 -40 546 51 1015 24 127 43 237 42 245 -5 23 -161 -145 -245
-265 -66 -94 -151 -261 -201 -398 -19 -50 -61 -225 -74 -305 -18 -116 -15
-396 6 -515 36 -200 79 -336 165 -510 151 -305 361 -542 655 -739 194 -129
397 -215 625 -263 116 -25 145 -27 361 -28 244 0 292 5 495 50 471 106 957
363 1371 726 259 227 471 505 554 724 52 140 55 283 6 377 -42 81 -132 199
-417 548 -395 484 -812 860 -1324 1192 -440 286 -877 483 -1314 593 -463 116
-810 145 -1166 96 -565 -77 -638 -85 -633 -72 2 4 91 87 198 182 107 96 197
178 200 184 3 5 -44 24 -105 41 -60 18 -173 50 -250 73 -489 141 -778 190
-1170 196 -132 2 -278 0 -325 -5z"/>
<path d="M14540 12600 c6 -11 13 -20 16 -20 2 0 0 9 -6 20 -6 11 -13 20 -16
20 -2 0 0 -9 6 -20z"/>
<path d="M14590 12526 c19 -26 39 -50 44 -54 5 -3 -6 16 -24 42 -19 26 -39 50
-44 54 -5 3 6 -16 24 -42z"/>
<path d="M14650 12440 c6 -11 13 -20 16 -20 2 0 0 9 -6 20 -6 11 -13 20 -16
20 -2 0 0 -9 6 -20z"/>
<path d="M14723 12330 c28 -45 62 -98 74 -118 13 -20 23 -32 23 -26 0 6 -29
56 -65 110 -36 54 -65 102 -65 106 0 5 -4 8 -10 8 -5 0 14 -36 43 -80z"/>
<path d="M14830 12161 c0 -6 4 -13 10 -16 6 -3 7 1 4 9 -7 18 -14 21 -14 7z"/>
<path d="M14875 12085 c15 -27 32 -54 38 -60 6 -5 -2 13 -18 40 -15 28 -32 55
-38 60 -6 6 2 -12 18 -40z"/>
<path d="M14946 11967 c3 -10 9 -15 12 -12 3 3 0 11 -7 18 -10 9 -11 8 -5 -6z"/>
<path d="M14985 11893 c8 -18 18 -33 20 -33 10 0 4 16 -16 40 l-20 25 16 -32z"/>
<path d="M15030 11816 c0 -5 20 -44 45 -87 25 -43 45 -83 45 -88 0 -5 4 -13
10 -16 6 -4 7 2 1 17 -13 33 -101 185 -101 174z"/>
<path d="M15140 11606 c0 -11 30 -66 36 -66 2 0 -3 15 -12 33 -19 36 -24 44
-24 33z"/>
<path d="M15186 11517 c3 -10 9 -15 12 -12 3 3 0 11 -7 18 -10 9 -11 8 -5 -6z"/>
<path d="M15201 11485 c0 -5 15 -39 34 -75 19 -36 34 -60 34 -55 0 6 -15 39
-34 75 -19 36 -34 61 -34 55z"/>
<path d="M15270 11339 c0 -4 16 -40 35 -80 20 -41 33 -63 29 -49 -7 26 -63
139 -64 129z"/>
<path d="M15355 11145 c9 -22 22 -53 27 -68 6 -15 12 -26 15 -23 5 5 -36 107
-50 121 -5 6 -1 -8 8 -30z"/>
<path d="M15410 11015 c0 -5 5 -17 10 -25 5 -8 10 -10 10 -5 0 6 -5 17 -10 25
-5 8 -10 11 -10 5z"/>
<path d="M15441 10940 c0 -8 4 -22 9 -30 12 -18 12 -2 0 25 -6 13 -9 15 -9 5z"/>
<path d="M15467 10869 c4 -13 8 -18 11 -10 2 7 -1 18 -6 23 -8 8 -9 4 -5 -13z"/>
<path d="M15481 10840 c-1 -3 8 -27 19 -55 10 -27 19 -43 19 -35 0 14 -36 101
-38 90z"/>
<path d="M15530 10695 c0 -5 5 -17 10 -25 5 -8 10 -10 10 -5 0 6 -5 17 -10 25
-5 8 -10 11 -10 5z"/>
<path d="M10795 10604 c-358 -55 -556 -236 -624 -572 -34 -167 17 -365 132
-517 4 -5 27 -37 52 -69 25 -33 45 -63 45 -68 0 -5 -9 -19 -21 -31 -40 -43
-106 -153 -133 -221 -38 -96 -49 -182 -36 -282 37 -282 149 -443 388 -556 45
-21 82 -42 82 -46 0 -3 -15 -42 -34 -87 -125 -291 -115 -497 35 -715 103 -150
247 -245 416 -275 81 -15 289 -20 357 -8 38 6 37 6 -110 78 -306 147 -435 258
-479 410 -36 121 0 394 75 585 11 28 18 56 15 61 -3 5 -50 39 -103 76 -167
116 -230 167 -291 238 -39 46 -80 146 -87 211 -13 124 50 323 161 510 30 50
55 95 55 98 0 4 -27 39 -60 78 -169 201 -223 394 -170 602 41 160 118 260 313
407 67 50 126 95 132 100 11 11 5 11 -110 -7z"/>
<path d="M15570 10585 c0 -5 5 -17 10 -25 5 -8 10 -10 10 -5 0 6 -5 17 -10 25
-5 8 -10 11 -10 5z"/>
<path d="M15591 10524 c0 -11 3 -14 6 -6 3 7 2 16 -1 19 -3 4 -6 -2 -5 -13z"/>
<path d="M15600 10495 c0 -5 5 -17 10 -25 5 -8 10 -10 10 -5 0 6 -5 17 -10 25
-5 8 -10 11 -10 5z"/>
<path d="M15621 10434 c0 -11 3 -14 6 -6 3 7 2 16 -1 19 -3 4 -6 -2 -5 -13z"/>
<path d="M15651 10340 c0 -8 4 -22 9 -30 12 -18 12 -2 0 25 -6 13 -9 15 -9 5z"/>
<path d="M13082 10299 c-110 -21 -224 -103 -275 -197 -38 -70 -53 -174 -38
-264 29 -176 137 -293 307 -333 252 -59 496 106 520 354 8 79 -10 175 -47 249
-77 151 -270 230 -467 191z"/>
<path d="M15671 10274 c0 -11 3 -14 6 -6 3 7 2 16 -1 19 -3 4 -6 -2 -5 -13z"/>
<path d="M15681 10235 c1 -19 18 -51 18 -35 0 8 -4 22 -9 30 -5 8 -9 11 -9 5z"/>
<path d="M15701 10164 c0 -11 3 -14 6 -6 3 7 2 16 -1 19 -3 4 -6 -2 -5 -13z"/>
<path d="M15722 10100 c0 -8 4 -26 8 -40 6 -20 8 -21 8 -5 0 11 -3 29 -8 40
-5 12 -8 14 -8 5z"/>
<path d="M15741 10020 c0 -8 4 -24 9 -35 5 -13 9 -14 9 -5 0 8 -4 24 -9 35 -5
13 -9 14 -9 5z"/>
<path d="M15761 9945 c0 -5 8 -41 19 -80 11 -38 18 -54 15 -34 -6 39 -33 130
-34 114z"/>
<path d="M15802 9770 c0 -14 2 -19 5 -12 2 6 2 18 0 25 -3 6 -5 1 -5 -13z"/>
<path d="M9920 9729 c-47 -5 -118 -18 -158 -29 -276 -76 -458 -305 -478 -603
-15 -218 32 -338 203 -517 59 -62 109 -118 111 -125 2 -7 -15 -41 -38 -76 -95
-148 -139 -270 -139 -389 -1 -174 103 -396 243 -519 164 -144 372 -187 630
-131 l110 23 -145 47 c-355 113 -507 248 -540 475 -18 128 19 272 135 519 l47
100 -48 49 c-26 28 -63 63 -80 79 -47 43 -127 146 -153 198 -36 70 -50 137
-50 235 0 175 47 307 146 414 52 57 83 82 232 191 63 46 88 73 65 69 -5 -1
-46 -6 -93 -10z"/>
<path d="M15811 9724 c0 -11 3 -14 6 -6 3 7 2 16 -1 19 -3 4 -6 -2 -5 -13z"/>
<path d="M15821 9684 c0 -11 3 -14 6 -6 3 7 2 16 -1 19 -3 4 -6 -2 -5 -13z"/>
<path d="M15832 9630 c0 -14 2 -19 5 -12 2 6 2 18 0 25 -3 6 -5 1 -5 -13z"/>
<path d="M15842 9580 c0 -14 2 -19 5 -12 2 6 2 18 0 25 -3 6 -5 1 -5 -13z"/>
<path d="M15851 9534 c0 -11 3 -14 6 -6 3 7 2 16 -1 19 -3 4 -6 -2 -5 -13z"/>
<path d="M15862 9485 c0 -16 2 -22 5 -12 2 9 2 23 0 30 -3 6 -5 -1 -5 -18z"/>
<path d="M15872 9430 c0 -14 2 -19 5 -12 2 6 2 18 0 25 -3 6 -5 1 -5 -13z"/>
<path d="M15882 9370 c0 -14 2 -19 5 -12 2 6 2 18 0 25 -3 6 -5 1 -5 -13z"/>
<path d="M15892 9310 c0 -14 4 -36 8 -50 6 -20 8 -21 8 -5 0 11 -4 34 -8 50
-7 27 -8 27 -8 5z"/>
<path d="M15912 9190 c0 -19 2 -27 5 -17 2 9 2 25 0 35 -3 9 -5 1 -5 -18z"/>
<path d="M15922 9120 c0 -19 2 -27 5 -17 2 9 2 25 0 35 -3 9 -5 1 -5 -18z"/>
<path d="M15932 9040 c0 -19 2 -27 5 -17 2 9 2 25 0 35 -3 9 -5 1 -5 -18z"/>
<path d="M15942 8960 c0 -19 2 -27 5 -17 2 9 2 25 0 35 -3 9 -5 1 -5 -18z"/>
<path d="M15952 8880 c0 -19 2 -27 5 -17 2 9 2 25 0 35 -3 9 -5 1 -5 -18z"/>
<path d="M9035 8860 c-305 -61 -493 -234 -566 -521 -17 -69 -18 -247 0 -319
56 -236 254 -428 501 -489 89 -21 240 -39 240 -27 0 21 -115 140 -189 195
-141 105 -206 188 -259 329 -21 56 -25 86 -26 177 -1 96 3 120 27 190 39 114
75 165 227 325 118 124 152 163 138 159 -1 -1 -43 -9 -93 -19z"/>
<path d="M15963 8785 c-1 -27 3 -77 7 -110 6 -54 7 -56 7 -15 1 25 -3 74 -7
110 -7 62 -7 62 -7 15z"/>
<path d="M15983 8535 c0 -33 2 -45 4 -27 2 18 2 45 0 60 -2 15 -4 0 -4 -33z"/>
<path d="M15994 8365 c0 -55 1 -76 3 -47 2 29 2 74 0 100 -2 26 -3 2 -3 -53z"/>
<path d="M15987 7566 c-4 -87 -6 -161 -3 -163 6 -6 18 235 14 282 -1 22 -6
-32 -11 -119z"/>
<path d="M14233 7430 c-22 -5 -60 -18 -83 -30 -44 -22 -142 -114 -153 -143 -3
-9 -22 -42 -42 -72 -19 -30 -46 -83 -61 -117 -14 -35 -32 -76 -39 -93 -24 -57
-92 -277 -134 -435 -80 -298 -95 -352 -128 -450 -20 -58 -43 -123 -53 -145
-10 -22 -28 -67 -41 -100 -12 -33 -37 -93 -56 -133 -18 -41 -33 -76 -33 -78 0
-10 -152 -310 -187 -369 -38 -63 -85 -137 -93 -145 -3 -3 -14 -21 -24 -40 -21
-38 -84 -123 -155 -210 -25 -30 -116 -127 -203 -215 -86 -88 -171 -176 -189
-195 -43 -49 -91 -110 -87 -110 3 0 32 11 66 25 186 76 538 287 950 572 289
199 352 246 549 401 154 121 476 437 558 547 16 22 33 42 36 45 25 21 147 206
191 291 116 223 150 412 106 599 -22 95 -109 246 -200 349 -44 49 -209 177
-265 205 -44 22 -165 58 -183 55 -3 -1 -24 -5 -47 -9z"/>
<path d="M15973 7325 c0 -27 2 -38 4 -22 2 15 2 37 0 50 -2 12 -4 0 -4 -28z"/>
<path d="M15963 7210 c0 -25 2 -35 4 -22 2 12 2 32 0 45 -2 12 -4 2 -4 -23z"/>
<path d="M15953 7115 c0 -22 2 -30 4 -17 2 12 2 30 0 40 -3 9 -5 -1 -4 -23z"/>
<path d="M15942 7030 c0 -19 2 -27 5 -17 2 9 2 25 0 35 -3 9 -5 1 -5 -18z"/>
<path d="M15932 6950 c0 -19 2 -27 5 -17 2 9 2 25 0 35 -3 9 -5 1 -5 -18z"/>
<path d="M15922 6875 c0 -16 2 -22 5 -12 2 9 2 23 0 30 -3 6 -5 -1 -5 -18z"/>
<path d="M15912 6800 c0 -19 2 -27 5 -17 2 9 2 25 0 35 -3 9 -5 1 -5 -18z"/>
<path d="M15902 6740 c0 -14 2 -19 5 -12 2 6 2 18 0 25 -3 6 -5 1 -5 -13z"/>
<path d="M15886 6654 c-3 -26 -4 -49 -2 -52 3 -2 8 17 11 43 4 25 5 48 3 51
-3 2 -8 -17 -12 -42z"/>
<path d="M12093 6572 c-77 -32 -122 -93 -147 -202 -35 -148 -12 -313 96 -685
50 -170 62 -251 62 -400 0 -139 -17 -242 -74 -440 -16 -55 -40 -147 -55 -205
-14 -58 -28 -113 -31 -122 -10 -33 13 -18 87 55 91 88 189 217 189 247 0 6 3
10 8 10 4 0 23 33 42 73 19 39 38 74 43 75 4 2 7 8 7 14 0 6 17 49 39 97 36
81 61 153 110 316 12 38 35 142 53 230 28 142 31 181 32 340 1 143 -3 197 -18
259 -43 187 -128 294 -268 337 -73 23 -120 23 -175 1z"/>
<path d="M15872 6565 c0 -16 2 -22 5 -12 2 9 2 23 0 30 -3 6 -5 -1 -5 -18z"/>
<path d="M15851 6464 c-6 -37 -10 -68 -8 -71 3 -2 10 26 17 62 7 36 10 68 8
70 -3 3 -10 -25 -17 -61z"/>
<path d="M15831 6354 c0 -11 3 -14 6 -6 3 7 2 16 -1 19 -3 4 -6 -2 -5 -13z"/>
<path d="M15806 6244 c-10 -41 -16 -77 -14 -80 3 -2 12 30 22 72 10 41 16 77
14 80 -3 2 -12 -30 -22 -72z"/>
<path d="M15781 6134 c0 -11 3 -14 6 -6 3 7 2 16 -1 19 -3 4 -6 -2 -5 -13z"/>
<path d="M15771 6094 c0 -11 3 -14 6 -6 3 7 2 16 -1 19 -3 4 -6 -2 -5 -13z"/>
<path d="M15762 6050 c0 -14 2 -19 5 -12 2 6 2 18 0 25 -3 6 -5 1 -5 -13z"/>
<path d="M15746 5994 c-4 -14 -5 -28 -3 -31 3 -2 8 8 11 23 4 14 5 28 3 31 -3
2 -8 -8 -11 -23z"/>
<path d="M15716 5884 c-9 -37 -15 -68 -13 -71 3 -2 12 26 21 63 9 37 15 68 13
71 -3 2 -12 -26 -21 -63z"/>
<path d="M15681 5754 c0 -11 3 -14 6 -6 3 7 2 16 -1 19 -3 4 -6 -2 -5 -13z"/>
<path d="M15651 5659 c-7 -22 -11 -43 -8 -45 2 -2 9 14 16 37 7 22 11 43 8 45
-2 2 -9 -14 -16 -37z"/>
<path d="M15621 5563 c-1 -6 -4 -20 -7 -30 -5 -17 -5 -17 6 0 6 10 9 23 6 30
-3 9 -5 9 -5 0z"/>
<path d="M15596 5484 c-4 -14 -5 -28 -3 -31 3 -2 8 8 11 23 4 14 5 28 3 31 -3
2 -8 -8 -11 -23z"/>
<path d="M15566 5394 c-9 -26 -14 -49 -12 -51 2 -2 11 17 20 43 9 26 14 49 12
51 -2 2 -11 -17 -20 -43z"/>
<path d="M15526 5285 c-9 -26 -7 -32 5 -12 6 10 9 21 6 23 -2 3 -7 -2 -11 -11z"/>
<path d="M15511 5234 c0 -11 3 -14 6 -6 3 7 2 16 -1 19 -3 4 -6 -2 -5 -13z"/>
<path d="M15495 5199 c-4 -6 -5 -12 -2 -15 2 -3 7 2 10 11 7 17 1 20 -8 4z"/>
<path d="M15478 5155 c-3 -11 -9 -29 -13 -40 -3 -11 1 -7 10 8 9 16 15 33 12
40 -2 6 -6 3 -9 -8z"/>
<path d="M14680 5079 c-40 -8 -188 -73 -200 -88 -3 -4 -34 -27 -70 -53 -36
-25 -80 -59 -99 -75 -75 -62 -318 -267 -346 -292 -76 -66 -261 -199 -360 -258
-217 -130 -696 -393 -715 -393 -5 0 -10 -4 -10 -8 0 -5 -18 -17 -40 -27 -25
-11 -39 -24 -36 -31 3 -8 0 -11 -8 -8 -7 3 -24 -5 -37 -16 l-24 -21 95 6 c444
28 1128 198 1453 360 118 59 348 203 408 257 15 13 50 42 77 66 62 52 135 148
171 222 38 80 33 201 -9 240 -3 3 -16 20 -29 37 -27 39 -92 79 -141 86 -19 3
-55 1 -80 -4z"/>
<path d="M15441 5059 c-6 -18 -9 -34 -7 -36 2 -2 9 10 15 28 6 18 9 34 7 36
-2 2 -9 -10 -15 -28z"/>
<path d="M15402 4958 c-12 -28 -20 -53 -18 -55 2 -2 13 19 25 48 12 28 21 53
19 55 -3 2 -14 -20 -26 -48z"/>
<path d="M15356 4855 c-3 -9 -6 -22 -5 -28 0 -7 5 -1 10 12 5 13 8 26 5 28 -2
2 -6 -3 -10 -12z"/>
<path d="M15325 4779 c-9 -17 -15 -33 -13 -35 3 -2 12 12 21 31 21 43 13 47
-8 4z"/>
<path d="M15285 4689 c-4 -6 -5 -12 -2 -15 2 -3 7 2 10 11 7 17 1 20 -8 4z"/>
<path d="M15266 4643 c-6 -14 -5 -15 5 -6 7 7 10 15 7 18 -3 3 -9 -2 -12 -12z"/>
<path d="M15227 4564 c-37 -74 -33 -83 4 -10 17 32 29 60 27 62 -2 2 -16 -21
-31 -52z"/>
<path d="M15175 4459 c-9 -17 -15 -33 -13 -35 3 -2 12 12 21 31 21 43 13 47
-8 4z"/>
<path d="M15135 4379 c-9 -17 -15 -33 -13 -35 3 -2 12 12 21 31 21 43 13 47
-8 4z"/>
</g>
</svg>
